<svg xmlns="http://www.w3.org/2000/svg" width="32" height="32" fill="none"><g clip-path="url(#a)"><path fill="#A2A1AE" fill-rule="evenodd" d="M25.78 10.689h-7.196a1.757 1.757 0 0 1-1.757-1.757V1.757A1.762 1.762 0 0 1 18.584 0h7.159a1.794 1.794 0 0 1 1.794 1.794v7.138a1.758 1.758 0 0 1-1.758 1.757zm-12.132.44 13.377 12.606h-.021a1.55 1.55 0 0 1 .517 1.142v5.376a1.799 1.799 0 0 1-1.794 1.799h-6.202a1.576 1.576 0 0 1-1.08-.43l-13.357-12.6a1.551 1.551 0 0 1-.517-1.143v-5.386a1.793 1.793 0 0 1 1.794-1.794h6.203a1.55 1.55 0 0 1 1.08.43z" clip-rule="evenodd"/></g><defs><clipPath id="a"><path fill="#fff" d="M0 0h32v32H0z"/></clipPath></defs></svg>