<svg class="svg-icon" style="width: 1em; height: 1em;vertical-align: middle;fill: currentColor;overflow: hidden;" viewBox="0 0 1024 1024" version="1.1" xmlns="http://www.w3.org/2000/svg"><path d="M128 64a64 64 0 0 0-128 0v960h128V64z" fill="#434854" /><path d="M128 64h896v576H128z" fill="#EAEAEA" /><path d="M128 64h896v64H128zM128 192h896v64H128zM128 320h896v64H128zM128 448h896v64H128zM128 576h896v64H128z" fill="#EF4D4D" /><path d="M128 64h448v288H128z" fill="#469FCC" /><path d="M496 112m-16 0a16 16 0 1 0 32 0 16 16 0 1 0-32 0Z" fill="#FFFFFF" /><path d="M432 112m-16 0a16 16 0 1 0 32 0 16 16 0 1 0-32 0Z" fill="#FFFFFF" /><path d="M368 112m-16 0a16 16 0 1 0 32 0 16 16 0 1 0-32 0Z" fill="#FFFFFF" /><path d="M304 112m-16 0a16 16 0 1 0 32 0 16 16 0 1 0-32 0Z" fill="#FFFFFF" /><path d="M240 112m-16 0a16 16 0 1 0 32 0 16 16 0 1 0-32 0Z" fill="#FFFFFF" /><path d="M176 112m-16 0a16 16 0 1 0 32 0 16 16 0 1 0-32 0Z" fill="#FFFFFF" /><path d="M464 176m-16 0a16 16 0 1 0 32 0 16 16 0 1 0-32 0Z" fill="#FFFFFF" /><path d="M528 176m-16 0a16 16 0 1 0 32 0 16 16 0 1 0-32 0Z" fill="#FFFFFF" /><path d="M528 304m-16 0a16 16 0 1 0 32 0 16 16 0 1 0-32 0Z" fill="#FFFFFF" /><path d="M400 176m-16 0a16 16 0 1 0 32 0 16 16 0 1 0-32 0Z" fill="#FFFFFF" /><path d="M336 176m-16 0a16 16 0 1 0 32 0 16 16 0 1 0-32 0Z" fill="#FFFFFF" /><path d="M272 176m-16 0a16 16 0 1 0 32 0 16 16 0 1 0-32 0Z" fill="#FFFFFF" /><path d="M208 176m-16 0a16 16 0 1 0 32 0 16 16 0 1 0-32 0Z" fill="#FFFFFF" /><path d="M496 240m-16 0a16 16 0 1 0 32 0 16 16 0 1 0-32 0Z" fill="#FFFFFF" /><path d="M432 240m-16 0a16 16 0 1 0 32 0 16 16 0 1 0-32 0Z" fill="#FFFFFF" /><path d="M368 240m-16 0a16 16 0 1 0 32 0 16 16 0 1 0-32 0Z" fill="#FFFFFF" /><path d="M304 240m-16 0a16 16 0 1 0 32 0 16 16 0 1 0-32 0Z" fill="#FFFFFF" /><path d="M240 240m-16 0a16 16 0 1 0 32 0 16 16 0 1 0-32 0Z" fill="#FFFFFF" /><path d="M176 240m-16 0a16 16 0 1 0 32 0 16 16 0 1 0-32 0Z" fill="#FFFFFF" /><path d="M464 304m-16 0a16 16 0 1 0 32 0 16 16 0 1 0-32 0Z" fill="#FFFFFF" /><path d="M400 304m-16 0a16 16 0 1 0 32 0 16 16 0 1 0-32 0Z" fill="#FFFFFF" /><path d="M336 304m-16 0a16 16 0 1 0 32 0 16 16 0 1 0-32 0Z" fill="#FFFFFF" /><path d="M272 304m-16 0a16 16 0 1 0 32 0 16 16 0 1 0-32 0Z" fill="#FFFFFF" /><path d="M208 304m-16 0a16 16 0 1 0 32 0 16 16 0 1 0-32 0Z" fill="#FFFFFF" /><path d="M128 64h32v576H128z" fill="" /></svg>