<svg class="svg-icon" style="width: 1em; height: 1em;vertical-align: middle;fill: currentColor;overflow: hidden;" viewBox="0 0 1024 1024" version="1.1" xmlns="http://www.w3.org/2000/svg"><path d="M128 64a64 64 0 0 0-128 0v960h128V64z" fill="#434854" /><path d="M128 64h896v576H128z" fill="#84BF56" /><path d="M128 64h32v576H128z" fill="" /><path d="M576 128l320 224-320 224-320-224z" fill="#EACA44" /><path d="M576 352m-128 0a128 128 0 1 0 256 0 128 128 0 1 0-256 0Z" fill="#469FCC" /><path d="M458.784 300.832a127.68 127.68 0 0 0-9.408 37.44 254.816 254.816 0 0 1 252.352 36.352c1.312-7.36 2.272-14.88 2.272-22.624 0-5.632-0.928-11.008-1.664-16.448a288.32 288.32 0 0 0-243.552-34.72z" fill="#FFFFFF" /></svg>